# Tiled2Unity generated file. Do not modify by hand.
# Wavefront file for 'test_area_mesh_0003.obj'

# Vertices (Count = 168)
v -405 -390 0
v -421 -390 0
v -421 -374 0
v -405 -374 0
v -210 -390 0
v -226 -390 0
v -226 -374 0
v -210 -374 0
v -405 -405 0
v -421 -405 0
v -421 -389 0
v -405 -389 0
v -210 -405 0
v -226 -405 0
v -226 -389 0
v -210 -389 0
v -600 -435 0
v -616 -435 0
v -616 -419 0
v -600 -419 0
v -315 -435 0
v -331 -435 0
v -331 -419 0
v -315 -419 0
v -600 -450 0
v -616 -450 0
v -616 -434 0
v -600 -434 0
v -525 -465 0
v -541 -465 0
v -541 -449 0
v -525 -449 0
v -525 -480 0
v -541 -480 0
v -541 -464 0
v -525 -464 0
v -720 -495 0
v -736 -495 0
v -736 -479 0
v -720 -479 0
v -375 -495 0
v -391 -495 0
v -391 -479 0
v -375 -479 0
v -255 -495 0
v -271 -495 0
v -271 -479 0
v -255 -479 0
v -660 -510 0
v -676 -510 0
v -676 -494 0
v -660 -494 0
v -375 -510 0
v -391 -510 0
v -391 -494 0
v -375 -494 0
v -255 -510 0
v -271 -510 0
v -271 -494 0
v -255 -494 0
v -150 -525 0
v -166 -525 0
v -166 -509 0
v -150 -509 0
v -720 -540 0
v -736 -540 0
v -736 -524 0
v -720 -524 0
v -525 -540 0
v -541 -540 0
v -541 -524 0
v -525 -524 0
v -150 -540 0
v -166 -540 0
v -166 -524 0
v -150 -524 0
v -720 -555 0
v -736 -555 0
v -736 -539 0
v -720 -539 0
v -525 -555 0
v -541 -555 0
v -541 -539 0
v -525 -539 0
v -645 -570 0
v -661 -570 0
v -661 -554 0
v -645 -554 0
v -645 -585 0
v -661 -585 0
v -661 -569 0
v -645 -569 0
v -585 -585 0
v -601 -585 0
v -601 -569 0
v -585 -569 0
v -180 -600 0
v -196 -600 0
v -196 -584 0
v -180 -584 0
v -435 -630 0
v -451 -630 0
v -451 -614 0
v -435 -614 0
v -645 -675 0
v -661 -675 0
v -661 -659 0
v -645 -659 0
v -225 -675 0
v -241 -675 0
v -241 -659 0
v -225 -659 0
v -645 -690 0
v -661 -690 0
v -661 -674 0
v -645 -674 0
v -225 -690 0
v -241 -690 0
v -241 -674 0
v -225 -674 0
v -165 -690 0
v -181 -690 0
v -181 -674 0
v -165 -674 0
v -555 -705 0
v -571 -705 0
v -571 -689 0
v -555 -689 0
v -330 -705 0
v -346 -705 0
v -346 -689 0
v -330 -689 0
v -165 -705 0
v -181 -705 0
v -181 -689 0
v -165 -689 0
v -555 -720 0
v -571 -720 0
v -571 -704 0
v -555 -704 0
v -330 -720 0
v -346 -720 0
v -346 -704 0
v -330 -704 0
v -210 -750 0
v -226 -750 0
v -226 -734 0
v -210 -734 0
v -210 -765 0
v -226 -765 0
v -226 -749 0
v -210 -749 0
v -345 -780 0
v -361 -780 0
v -361 -764 0
v -345 -764 0
v -285 -780 0
v -301 -780 0
v -301 -764 0
v -285 -764 0
v -345 -795 0
v -361 -795 0
v -361 -779 0
v -345 -779 0
v -285 -795 0
v -301 -795 0
v -301 -779 0
v -285 -779 0

# Texture cooridinates (Count = 12)
vt 0.2811138 0.6465099
vt 0.2973986 0.6465099
vt 0.2973986 0.676684
vt 0.2811138 0.676684
vt 0.2811138 0.6141905
vt 0.2973986 0.6141905
vt 0.2973986 0.6443646
vt 0.2811138 0.6443646
vt 0.2284279 0.6788293
vt 0.2447126 0.6788293
vt 0.2447126 0.7090034
vt 0.2284279 0.7090034

# Normal
vn 0 0 -1

# Mesh description
g test_area_mesh_0003

# Faces
f 1/1/1 2/2/1 3/3/1 4/4/1
f 5/1/1 6/2/1 7/3/1 8/4/1
f 9/5/1 10/6/1 11/7/1 12/8/1
f 13/5/1 14/6/1 15/7/1 16/8/1
f 17/1/1 18/2/1 19/3/1 20/4/1
f 21/9/1 22/10/1 23/11/1 24/12/1
f 25/5/1 26/6/1 27/7/1 28/8/1
f 29/1/1 30/2/1 31/3/1 32/4/1
f 33/5/1 34/6/1 35/7/1 36/8/1
f 37/9/1 38/10/1 39/11/1 40/12/1
f 41/1/1 42/2/1 43/3/1 44/4/1
f 45/1/1 46/2/1 47/3/1 48/4/1
f 49/9/1 50/10/1 51/11/1 52/12/1
f 53/5/1 54/6/1 55/7/1 56/8/1
f 57/5/1 58/6/1 59/7/1 60/8/1
f 61/1/1 62/2/1 63/3/1 64/4/1
f 65/1/1 66/2/1 67/3/1 68/4/1
f 69/1/1 70/2/1 71/3/1 72/4/1
f 73/5/1 74/6/1 75/7/1 76/8/1
f 77/5/1 78/6/1 79/7/1 80/8/1
f 81/5/1 82/6/1 83/7/1 84/8/1
f 85/1/1 86/2/1 87/3/1 88/4/1
f 89/5/1 90/6/1 91/7/1 92/8/1
f 93/9/1 94/10/1 95/11/1 96/12/1
f 97/9/1 98/10/1 99/11/1 100/12/1
f 101/9/1 102/10/1 103/11/1 104/12/1
f 105/1/1 106/2/1 107/3/1 108/4/1
f 109/1/1 110/2/1 111/3/1 112/4/1
f 113/5/1 114/6/1 115/7/1 116/8/1
f 117/5/1 118/6/1 119/7/1 120/8/1
f 121/1/1 122/2/1 123/3/1 124/4/1
f 125/1/1 126/2/1 127/3/1 128/4/1
f 129/1/1 130/2/1 131/3/1 132/4/1
f 133/5/1 134/6/1 135/7/1 136/8/1
f 137/5/1 138/6/1 139/7/1 140/8/1
f 141/5/1 142/6/1 143/7/1 144/8/1
f 145/1/1 146/2/1 147/3/1 148/4/1
f 149/5/1 150/6/1 151/7/1 152/8/1
f 153/1/1 154/2/1 155/3/1 156/4/1
f 157/1/1 158/2/1 159/3/1 160/4/1
f 161/5/1 162/6/1 163/7/1 164/8/1
f 165/5/1 166/6/1 167/7/1 168/8/1

